<svg id="visual" viewBox="0 0 960 540" width="960" height="540" xmlns="http://www.w3.org/2000/svg" xmlns:xlink="http://www.w3.org/1999/xlink" version="1.1"><path d="M0 446L13.3 453.7C26.7 461.3 53.3 476.7 80 477.8C106.7 479 133.3 466 160 464.3C186.7 462.7 213.3 472.3 240 472.5C266.7 472.7 293.3 463.3 320 463.3C346.7 463.3 373.3 472.7 400 471.2C426.7 469.7 453.3 457.3 480 456.8C506.7 456.3 533.3 467.7 560 469.8C586.7 472 613.3 465 640 458.8C666.7 452.7 693.3 447.3 720 444.8C746.7 442.3 773.3 442.7 800 447C826.7 451.3 853.3 459.7 880 462.8C906.7 466 933.3 464 946.7 463L960 462L960 541L946.7 541C933.3 541 906.7 541 880 541C853.3 541 826.7 541 800 541C773.3 541 746.7 541 720 541C693.3 541 666.7 541 640 541C613.3 541 586.7 541 560 541C533.3 541 506.7 541 480 541C453.3 541 426.7 541 400 541C373.3 541 346.7 541 320 541C293.3 541 266.7 541 240 541C213.3 541 186.7 541 160 541C133.3 541 106.7 541 80 541C53.3 541 26.7 541 13.3 541L0 541Z" fill="#b023e8"></path><path d="M0 498L13.3 496.2C26.7 494.3 53.3 490.7 80 492.3C106.7 494 133.3 501 160 503.5C186.7 506 213.3 504 240 497C266.7 490 293.3 478 320 475C346.7 472 373.3 478 400 484.8C426.7 491.7 453.3 499.3 480 502.2C506.7 505 533.3 503 560 497.3C586.7 491.7 613.3 482.3 640 477.3C666.7 472.3 693.3 471.7 720 473.5C746.7 475.3 773.3 479.7 800 479.2C826.7 478.7 853.3 473.3 880 474.3C906.7 475.3 933.3 482.7 946.7 486.3L960 490L960 541L946.7 541C933.3 541 906.7 541 880 541C853.3 541 826.7 541 800 541C773.3 541 746.7 541 720 541C693.3 541 666.7 541 640 541C613.3 541 586.7 541 560 541C533.3 541 506.7 541 480 541C453.3 541 426.7 541 400 541C373.3 541 346.7 541 320 541C293.3 541 266.7 541 240 541C213.3 541 186.7 541 160 541C133.3 541 106.7 541 80 541C53.3 541 26.7 541 13.3 541L0 541Z" fill="#a220d6"></path><path d="M0 518L13.3 515C26.7 512 53.3 506 80 503.2C106.7 500.3 133.3 500.7 160 505.8C186.7 511 213.3 521 240 521.8C266.7 522.7 293.3 514.3 320 513.2C346.7 512 373.3 518 400 517.3C426.7 516.7 453.3 509.3 480 508.3C506.7 507.3 533.3 512.7 560 514.3C586.7 516 613.3 514 640 513.2C666.7 512.3 693.3 512.7 720 514C746.7 515.3 773.3 517.7 800 519.7C826.7 521.7 853.3 523.3 880 520.2C906.7 517 933.3 509 946.7 505L960 501L960 541L946.7 541C933.3 541 906.7 541 880 541C853.3 541 826.7 541 800 541C773.3 541 746.7 541 720 541C693.3 541 666.7 541 640 541C613.3 541 586.7 541 560 541C533.3 541 506.7 541 480 541C453.3 541 426.7 541 400 541C373.3 541 346.7 541 320 541C293.3 541 266.7 541 240 541C213.3 541 186.7 541 160 541C133.3 541 106.7 541 80 541C53.3 541 26.7 541 13.3 541L0 541Z" fill="#951ec4"></path></svg>