<svg id="visual" viewBox="0 0 960 540" width="960" height="540" xmlns="http://www.w3.org/2000/svg" xmlns:xlink="http://www.w3.org/1999/xlink" version="1.1"><path d="M0 104L10 107.2C20 110.3 40 116.7 60 120.8C80 125 100 127 120 122.7C140 118.3 160 107.7 180 104.8C200 102 220 107 240 106.2C260 105.3 280 98.7 300 97C320 95.3 340 98.7 360 100.8C380 103 400 104 420 108.5C440 113 460 121 480 120.7C500 120.3 520 111.7 540 107.3C560 103 580 103 600 99.8C620 96.7 640 90.3 660 88.2C680 86 700 88 720 92.3C740 96.7 760 103.3 780 102.7C800 102 820 94 840 97C860 100 880 114 900 117C920 120 940 112 950 108L960 104L960 0L950 0C940 0 920 0 900 0C880 0 860 0 840 0C820 0 800 0 780 0C760 0 740 0 720 0C700 0 680 0 660 0C640 0 620 0 600 0C580 0 560 0 540 0C520 0 500 0 480 0C460 0 440 0 420 0C400 0 380 0 360 0C340 0 320 0 300 0C280 0 260 0 240 0C220 0 200 0 180 0C160 0 140 0 120 0C100 0 80 0 60 0C40 0 20 0 10 0L0 0Z" fill="#b023e8"></path><path d="M0 74L10 75.7C20 77.3 40 80.7 60 85.2C80 89.7 100 95.3 120 92.3C140 89.3 160 77.7 180 78C200 78.3 220 90.7 240 95.2C260 99.7 280 96.3 300 92.5C320 88.7 340 84.3 360 82.8C380 81.3 400 82.7 420 82.7C440 82.7 460 81.3 480 81.3C500 81.3 520 82.7 540 87.2C560 91.7 580 99.3 600 97.7C620 96 640 85 660 84.8C680 84.7 700 95.3 720 101C740 106.7 760 107.3 780 106.7C800 106 820 104 840 97.5C860 91 880 80 900 75.5C920 71 940 73 950 74L960 75L960 0L950 0C940 0 920 0 900 0C880 0 860 0 840 0C820 0 800 0 780 0C760 0 740 0 720 0C700 0 680 0 660 0C640 0 620 0 600 0C580 0 560 0 540 0C520 0 500 0 480 0C460 0 440 0 420 0C400 0 380 0 360 0C340 0 320 0 300 0C280 0 260 0 240 0C220 0 200 0 180 0C160 0 140 0 120 0C100 0 80 0 60 0C40 0 20 0 10 0L0 0Z" fill="#a921df"></path><path d="M0 68L10 68.5C20 69 40 70 60 72C80 74 100 77 120 77.2C140 77.3 160 74.7 180 73.3C200 72 220 72 240 73.2C260 74.3 280 76.7 300 73.2C320 69.7 340 60.3 360 56C380 51.7 400 52.3 420 51.7C440 51 460 49 480 48C500 47 520 47 540 52.2C560 57.3 580 67.7 600 74.3C620 81 640 84 660 83.8C680 83.7 700 80.3 720 74C740 67.7 760 58.3 780 56.2C800 54 820 59 840 62.5C860 66 880 68 900 67.5C920 67 940 64 950 62.5L960 61L960 0L950 0C940 0 920 0 900 0C880 0 860 0 840 0C820 0 800 0 780 0C760 0 740 0 720 0C700 0 680 0 660 0C640 0 620 0 600 0C580 0 560 0 540 0C520 0 500 0 480 0C460 0 440 0 420 0C400 0 380 0 360 0C340 0 320 0 300 0C280 0 260 0 240 0C220 0 200 0 180 0C160 0 140 0 120 0C100 0 80 0 60 0C40 0 20 0 10 0L0 0Z" fill="#a220d6"></path><path d="M0 53L10 52.3C20 51.7 40 50.3 60 50.7C80 51 100 53 120 55.2C140 57.3 160 59.7 180 56.7C200 53.7 220 45.3 240 44.7C260 44 280 51 300 55.3C320 59.7 340 61.3 360 60.5C380 59.7 400 56.3 420 55.7C440 55 460 57 480 55.2C500 53.3 520 47.7 540 44.8C560 42 580 42 600 44.5C620 47 640 52 660 52.7C680 53.3 700 49.7 720 46.8C740 44 760 42 780 41C800 40 820 40 840 39.2C860 38.3 880 36.7 900 40.2C920 43.7 940 52.3 950 56.7L960 61L960 0L950 0C940 0 920 0 900 0C880 0 860 0 840 0C820 0 800 0 780 0C760 0 740 0 720 0C700 0 680 0 660 0C640 0 620 0 600 0C580 0 560 0 540 0C520 0 500 0 480 0C460 0 440 0 420 0C400 0 380 0 360 0C340 0 320 0 300 0C280 0 260 0 240 0C220 0 200 0 180 0C160 0 140 0 120 0C100 0 80 0 60 0C40 0 20 0 10 0L0 0Z" fill="#9b1fcd"></path><path d="M0 29L10 27.7C20 26.3 40 23.7 60 23C80 22.3 100 23.7 120 25.7C140 27.7 160 30.3 180 31.2C200 32 220 31 240 28C260 25 280 20 300 19C320 18 340 21 360 21.3C380 21.7 400 19.3 420 20C440 20.7 460 24.3 480 26.3C500 28.3 520 28.7 540 29.5C560 30.3 580 31.7 600 31.8C620 32 640 31 660 31.3C680 31.7 700 33.3 720 31.7C740 30 760 25 780 23.8C800 22.7 820 25.3 840 26.2C860 27 880 26 900 24.2C920 22.3 940 19.7 950 18.3L960 17L960 0L950 0C940 0 920 0 900 0C880 0 860 0 840 0C820 0 800 0 780 0C760 0 740 0 720 0C700 0 680 0 660 0C640 0 620 0 600 0C580 0 560 0 540 0C520 0 500 0 480 0C460 0 440 0 420 0C400 0 380 0 360 0C340 0 320 0 300 0C280 0 260 0 240 0C220 0 200 0 180 0C160 0 140 0 120 0C100 0 80 0 60 0C40 0 20 0 10 0L0 0Z" fill="#951ec4"></path></svg>