<svg id="visual" viewBox="0 0 960 540" width="960" height="540" xmlns="http://www.w3.org/2000/svg" xmlns:xlink="http://www.w3.org/1999/xlink" version="1.1"><path d="M0 25L9.3 26.7C18.7 28.3 37.3 31.7 56.2 33.8C75 36 94 37 112.8 37.7C131.7 38.3 150.3 38.7 169.2 38.8C188 39 207 39 225.8 38.5C244.7 38 263.3 37 282.2 36.5C301 36 320 36 338.8 35.8C357.7 35.7 376.3 35.3 395.2 35.5C414 35.7 433 36.3 451.8 36.8C470.7 37.3 489.3 37.7 508.2 37C527 36.3 546 34.7 564.8 33C583.7 31.3 602.3 29.7 621.2 30.8C640 32 659 36 677.8 38C696.7 40 715.3 40 734.2 39.5C753 39 772 38 790.8 37.3C809.7 36.7 828.3 36.3 847.2 36.5C866 36.7 885 37.3 903.8 36.5C922.7 35.7 941.3 33.3 950.7 32.2L960 31L960 0L950.7 0C941.3 0 922.7 0 903.8 0C885 0 866 0 847.2 0C828.3 0 809.7 0 790.8 0C772 0 753 0 734.2 0C715.3 0 696.7 0 677.8 0C659 0 640 0 621.2 0C602.3 0 583.7 0 564.8 0C546 0 527 0 508.2 0C489.3 0 470.7 0 451.8 0C433 0 414 0 395.2 0C376.3 0 357.7 0 338.8 0C320 0 301 0 282.2 0C263.3 0 244.7 0 225.8 0C207 0 188 0 169.2 0C150.3 0 131.7 0 112.8 0C94 0 75 0 56.2 0C37.3 0 18.7 0 9.3 0L0 0Z" fill="#b023e8"></path><path d="M0 29L9.3 28.7C18.7 28.3 37.3 27.7 56.2 26.2C75 24.7 94 22.3 112.8 20.7C131.7 19 150.3 18 169.2 18.3C188 18.7 207 20.3 225.8 20.7C244.7 21 263.3 20 282.2 21C301 22 320 25 338.8 24.5C357.7 24 376.3 20 395.2 20.2C414 20.3 433 24.7 451.8 26.2C470.7 27.7 489.3 26.3 508.2 24.7C527 23 546 21 564.8 19.8C583.7 18.7 602.3 18.3 621.2 18.5C640 18.7 659 19.3 677.8 19.2C696.7 19 715.3 18 734.2 19.5C753 21 772 25 790.8 24.8C809.7 24.7 828.3 20.3 847.2 18.7C866 17 885 18 903.8 19.7C922.7 21.3 941.3 23.7 950.7 24.8L960 26L960 0L950.7 0C941.3 0 922.7 0 903.8 0C885 0 866 0 847.2 0C828.3 0 809.7 0 790.8 0C772 0 753 0 734.2 0C715.3 0 696.7 0 677.8 0C659 0 640 0 621.2 0C602.3 0 583.7 0 564.8 0C546 0 527 0 508.2 0C489.3 0 470.7 0 451.8 0C433 0 414 0 395.2 0C376.3 0 357.7 0 338.8 0C320 0 301 0 282.2 0C263.3 0 244.7 0 225.8 0C207 0 188 0 169.2 0C150.3 0 131.7 0 112.8 0C94 0 75 0 56.2 0C37.3 0 18.7 0 9.3 0L0 0Z" fill="#a220d6"></path><path d="M0 10L9.3 10C18.7 10 37.3 10 56.2 9.8C75 9.7 94 9.3 112.8 9.2C131.7 9 150.3 9 169.2 9.7C188 10.3 207 11.7 225.8 12.5C244.7 13.3 263.3 13.7 282.2 13.8C301 14 320 14 338.8 14.5C357.7 15 376.3 16 395.2 15.7C414 15.3 433 13.7 451.8 13.7C470.7 13.7 489.3 15.3 508.2 16.2C527 17 546 17 564.8 15.8C583.7 14.7 602.3 12.3 621.2 12C640 11.7 659 13.3 677.8 14.7C696.7 16 715.3 17 734.2 15.8C753 14.7 772 11.3 790.8 11.3C809.7 11.3 828.3 14.7 847.2 14.5C866 14.3 885 10.7 903.8 10.2C922.7 9.7 941.3 12.3 950.7 13.7L960 15L960 0L950.7 0C941.3 0 922.7 0 903.8 0C885 0 866 0 847.2 0C828.3 0 809.7 0 790.8 0C772 0 753 0 734.2 0C715.3 0 696.7 0 677.8 0C659 0 640 0 621.2 0C602.3 0 583.7 0 564.8 0C546 0 527 0 508.2 0C489.3 0 470.7 0 451.8 0C433 0 414 0 395.2 0C376.3 0 357.7 0 338.8 0C320 0 301 0 282.2 0C263.3 0 244.7 0 225.8 0C207 0 188 0 169.2 0C150.3 0 131.7 0 112.8 0C94 0 75 0 56.2 0C37.3 0 18.7 0 9.3 0L0 0Z" fill="#951ec4"></path></svg>